<svg width="21" height="20" viewBox="0 0 21 20" fill="none" xmlns="http://www.w3.org/2000/svg">
<path d="M17.9839 15.3533C17.694 16.023 17.3509 16.6393 16.9534 17.206C16.4115 17.9786 15.9679 18.5134 15.626 18.8103C15.0959 19.2978 14.5281 19.5474 13.9199 19.5616C13.4834 19.5616 12.9569 19.4374 12.3441 19.1854C11.7292 18.9345 11.1642 18.8103 10.6475 18.8103C10.1057 18.8103 9.52453 18.9345 8.90293 19.1854C8.28039 19.4374 7.77888 19.5687 7.39543 19.5817C6.81229 19.6065 6.23104 19.3498 5.65085 18.8103C5.28054 18.4873 4.81736 17.9336 4.26249 17.1493C3.66716 16.3116 3.17771 15.3403 2.79427 14.2329C2.38362 13.0368 2.17776 11.8786 2.17776 10.7573C2.17776 9.47278 2.45532 8.36493 3.01125 7.43656C3.44817 6.69086 4.02942 6.10262 4.7569 5.6708C5.48439 5.23897 6.27043 5.01891 7.11694 5.00483C7.58012 5.00483 8.18752 5.14811 8.94233 5.42968C9.69501 5.7122 10.1783 5.85548 10.3902 5.85548C10.5486 5.85548 11.0855 5.68795 11.9957 5.35396C12.8563 5.04423 13.5828 4.91598 14.1779 4.9665C15.7904 5.09664 17.0019 5.73232 17.8076 6.87755C16.3654 7.75138 15.652 8.97529 15.6662 10.5454C15.6792 11.7683 16.1229 12.786 16.9948 13.5941C17.39 13.9691 17.8313 14.259 18.3222 14.4648C18.2158 14.7736 18.1034 15.0694 17.9839 15.3533ZM14.2855 0.800129C14.2855 1.75868 13.9353 2.65368 13.2373 3.48208C12.3949 4.46688 11.3761 5.03595 10.2712 4.94615C10.2571 4.83116 10.2489 4.71013 10.2489 4.58294C10.2489 3.66274 10.6495 2.67793 11.3609 1.87272C11.7161 1.46503 12.1678 1.12604 12.7156 0.855616C13.2621 0.589231 13.7792 0.441914 14.2654 0.416687C14.2796 0.54483 14.2855 0.672982 14.2855 0.800117V0.800129Z" fill="white"/>
</svg>
