<svg width="30" height="31" viewBox="0 0 30 31" fill="none" xmlns="http://www.w3.org/2000/svg">
<path d="M11.4495 15.025C11.412 15.025 11.387 15.025 11.3495 15.025C11.287 15.0125 11.1995 15.0125 11.1245 15.025C7.49946 14.9125 4.76196 12.0625 4.76196 8.55C4.76196 4.975 7.67446 2.0625 11.2495 2.0625C14.8245 2.0625 17.737 4.975 17.737 8.55C17.7245 12.0625 14.9745 14.9125 11.487 15.025C11.4745 15.025 11.462 15.025 11.4495 15.025ZM11.2495 3.9375C8.71196 3.9375 6.63696 6.0125 6.63696 8.55C6.63696 11.05 8.58696 13.0625 11.0745 13.15C11.1495 13.1375 11.312 13.1375 11.4745 13.15C13.9245 13.0375 15.8495 11.025 15.862 8.55C15.862 6.0125 13.787 3.9375 11.2495 3.9375Z" fill="#A8E4F6"/>
<path d="M20.6745 15.1875C20.637 15.1875 20.5995 15.1875 20.562 15.175C20.0495 15.225 19.5245 14.8625 19.4745 14.35C19.4245 13.8375 19.737 13.375 20.2495 13.3125C20.3995 13.3 20.562 13.3 20.6995 13.3C22.5245 13.2 23.9495 11.7 23.9495 9.8625C23.9495 7.9625 22.412 6.425 20.512 6.425C19.9995 6.4375 19.5745 6.0125 19.5745 5.5C19.5745 4.9875 19.9995 4.5625 20.512 4.5625C23.437 4.5625 25.8245 6.95 25.8245 9.875C25.8245 12.75 23.5745 15.075 20.712 15.1875C20.6995 15.1875 20.687 15.1875 20.6745 15.1875Z" fill="#A8E4F6"/>
<path d="M11.462 28.6875C9.01201 28.6875 6.54951 28.0625 4.68701 26.8125C2.94951 25.6625 1.99951 24.0875 1.99951 22.375C1.99951 20.6625 2.94951 19.075 4.68701 17.9125C8.43701 15.425 14.512 15.425 18.237 17.9125C19.962 19.0625 20.9245 20.6375 20.9245 22.35C20.9245 24.0625 19.9745 25.65 18.237 26.8125C16.362 28.0625 13.912 28.6875 11.462 28.6875ZM5.72451 19.4875C4.52451 20.2875 3.87451 21.3125 3.87451 22.3875C3.87451 23.45 4.53701 24.475 5.72451 25.2625C8.83701 27.35 14.087 27.35 17.1995 25.2625C18.3995 24.4625 19.0495 23.4375 19.0495 22.3625C19.0495 21.3 18.387 20.275 17.1995 19.4875C14.087 17.4125 8.83701 17.4125 5.72451 19.4875Z" fill="#A8E4F6"/>
<path d="M22.9245 26.4375C22.487 26.4375 22.0995 26.1375 22.012 25.6875C21.912 25.175 22.237 24.6875 22.737 24.575C23.5245 24.4125 24.2495 24.1 24.812 23.6625C25.5245 23.125 25.912 22.45 25.912 21.7375C25.912 21.025 25.5245 20.35 24.8245 19.825C24.2745 19.4 23.587 19.1 22.7745 18.9125C22.2745 18.8 21.9495 18.3 22.062 17.7875C22.1745 17.2875 22.6745 16.9625 23.187 17.075C24.262 17.3125 25.1995 17.7375 25.962 18.325C27.1245 19.2 27.787 20.4375 27.787 21.7375C27.787 23.0375 27.112 24.275 25.9495 25.1625C25.1745 25.7625 24.1995 26.2 23.1245 26.4125C23.0495 26.4375 22.987 26.4375 22.9245 26.4375Z" fill="#A8E4F6"/>
</svg>
