<svg width="30" height="31" viewBox="0 0 30 31" fill="none" xmlns="http://www.w3.org/2000/svg">
<path d="M3.75 16.85V19.1C3.75 21.75 3.75 21.75 6.25 23.4375L13.125 27.4125C14.1625 28.0125 15.85 28.0125 16.875 27.4125L23.75 23.4375C26.25 21.75 26.25 21.75 26.25 19.1125V11.8875C26.25 9.25001 26.25 9.25001 23.75 7.56251L16.875 3.58751C15.85 2.98751 14.1625 2.98751 13.125 3.58751L6.25 7.56251C3.75 9.25001 3.75 9.25001 3.75 11.8875" stroke="#A8E4F6" stroke-width="1.5" stroke-linecap="round" stroke-linejoin="round"/>
<path d="M18.75 15.5C18.75 13.425 17.075 11.75 15 11.75C12.925 11.75 11.25 13.425 11.25 15.5C11.25 17.575 12.925 19.25 15 19.25C15.5125 19.25 16.0125 19.15 16.4625 18.95" stroke="#A8E4F6" stroke-width="1.5" stroke-miterlimit="10" stroke-linecap="round" stroke-linejoin="round"/>
</svg>
