<svg width="43" height="42" viewBox="0 0 43 42" fill="none" xmlns="http://www.w3.org/2000/svg">
<path d="M4 22.575C4 16.45 6.45 14 12.575 14H19.925C26.05 14 28.5 16.45 28.5 22.575V29.925C28.5 36.05 26.05 38.5 19.925 38.5H12.575C6.45 38.5 4 36.05 4 29.925" stroke="#BCCBCD" stroke-width="1.5" stroke-linecap="round" stroke-linejoin="round"/>
<path d="M39 19.425C39 25.55 36.55 28 30.425 28H28.5V22.575C28.5 16.45 26.05 14 19.925 14H14.5V12.075C14.5 5.95 16.95 3.5 23.075 3.5H30.425C36.55 3.5 39 5.95 39 12.075" stroke="#BCCBCD" stroke-width="1.5" stroke-linecap="round" stroke-linejoin="round"/>
</svg>
