<svg width="21" height="21" viewBox="0 0 21 21" fill="none" xmlns="http://www.w3.org/2000/svg">
<path fill-rule="evenodd" clip-rule="evenodd" d="M20.35 10.7273C20.35 10.0182 20.2864 9.33637 20.1682 8.68182H10.75V12.55H16.1318C15.9 13.8 15.1955 14.8591 14.1364 15.5682V18.0773H17.3682C19.2591 16.3364 20.35 13.7727 20.35 10.7273Z" fill="#4285F4"/>
<path fill-rule="evenodd" clip-rule="evenodd" d="M10.7499 20.4999C13.4499 20.4999 15.7136 19.6044 17.3681 18.0772L14.1363 15.5681C13.2408 16.1681 12.0954 16.5226 10.7499 16.5226C8.14538 16.5226 5.94083 14.7635 5.15447 12.3999H1.81356V14.9908C3.45902 18.259 6.84083 20.4999 10.7499 20.4999Z" fill="#34A853"/>
<path fill-rule="evenodd" clip-rule="evenodd" d="M5.15455 12.4001C4.95455 11.8001 4.84091 11.1592 4.84091 10.5001C4.84091 9.84103 4.95455 9.20013 5.15455 8.60013V6.00922H1.81364C1.13636 7.35922 0.75 8.88649 0.75 10.5001C0.75 12.1138 1.13636 13.641 1.81364 14.991L5.15455 12.4001Z" fill="#FBBC05"/>
<path fill-rule="evenodd" clip-rule="evenodd" d="M10.7499 4.47727C12.2181 4.47727 13.5363 4.98182 14.5727 5.97273L17.4408 3.10455C15.709 1.49091 13.4454 0.5 10.7499 0.5C6.84083 0.5 3.45902 2.74091 1.81356 6.00909L5.15447 8.6C5.94083 6.23636 8.14538 4.47727 10.7499 4.47727Z" fill="#EA4335"/>
</svg>
