<svg width="30" height="31" viewBox="0 0 30 31" fill="none" xmlns="http://www.w3.org/2000/svg">
<path d="M2.5 28H27.5" stroke="#D4F2FB" stroke-width="1.5" stroke-miterlimit="10" stroke-linecap="round" stroke-linejoin="round"/>
<path d="M3.75 12.9625C3.75 12.2 4.1125 11.4751 4.7125 11.0001L13.4625 4.18754C14.3625 3.48754 15.625 3.48754 16.5375 4.18754L25.2875 10.9875C25.9 11.4625 26.25 12.1875 26.25 12.9625V28" stroke="#D4F2FB" stroke-width="1.5" stroke-miterlimit="10" stroke-linecap="round" stroke-linejoin="round"/>
<path d="M3.6875 28L3.725 18.0375" stroke="#D4F2FB" stroke-width="1.5" stroke-miterlimit="10" stroke-linecap="round" stroke-linejoin="round"/>
<path d="M16.25 21.75H13.75C12.7125 21.75 11.875 22.5875 11.875 23.625V28H18.125V23.625C18.125 22.5875 17.2875 21.75 16.25 21.75Z" stroke="#D4F2FB" stroke-width="1.5" stroke-miterlimit="10" stroke-linejoin="round"/>
<path d="M11.875 17.6875H9.375C8.6875 17.6875 8.125 17.125 8.125 16.4375V14.5625C8.125 13.875 8.6875 13.3125 9.375 13.3125H11.875C12.5625 13.3125 13.125 13.875 13.125 14.5625V16.4375C13.125 17.125 12.5625 17.6875 11.875 17.6875Z" stroke="#D4F2FB" stroke-width="1.5" stroke-miterlimit="10" stroke-linejoin="round"/>
<path d="M20.625 17.6875H18.125C17.4375 17.6875 16.875 17.125 16.875 16.4375V14.5625C16.875 13.875 17.4375 13.3125 18.125 13.3125H20.625C21.3125 13.3125 21.875 13.875 21.875 14.5625V16.4375C21.875 17.125 21.3125 17.6875 20.625 17.6875Z" stroke="#D4F2FB" stroke-width="1.5" stroke-miterlimit="10" stroke-linejoin="round"/>
<path d="M23.7499 9.25L23.7124 5.5H18.2124" stroke="#D4F2FB" stroke-width="1.5" stroke-miterlimit="10" stroke-linecap="round" stroke-linejoin="round"/>
</svg>
