<svg width="30" height="30" viewBox="0 0 30 30" fill="none" xmlns="http://www.w3.org/2000/svg">
<g clip-path="url(#clip0_21_408)">
<path d="M13.7124 2.5H11.2124C4.9624 2.5 2.4624 5 2.4624 11.25V18.75C2.4624 25 4.9624 27.5 11.2124 27.5H18.7124C24.9624 27.5 27.4624 25 27.4624 18.75V16.25" stroke="#D4F2FB" stroke-width="2.5" stroke-linecap="round" stroke-linejoin="round"/>
<path d="M27.35 4.45003C25.8125 8.28753 21.95 13.5125 18.725 16.1L16.75 17.675C16.5 17.8625 16.25 18.0125 15.9625 18.125C15.9625 17.9375 15.95 17.75 15.925 17.55C15.8125 16.7125 15.4375 15.925 14.7625 15.2625C14.075 14.575 13.25 14.1875 12.4 14.075C12.2 14.0625 12 14.05 11.8 14.0625C11.9125 13.75 12.075 13.4625 12.2875 13.225L13.8625 11.25C16.45 8.02503 21.6875 4.13753 25.5125 2.60003C26.1 2.37503 26.675 2.55003 27.0375 2.91253C27.4125 3.28753 27.5875 3.86253 27.35 4.45003Z" stroke="#D4F2FB" stroke-width="2.5" stroke-linecap="round" stroke-linejoin="round"/>
<path d="M15.9751 18.1125C15.9751 19.2125 15.5501 20.2625 14.7626 21.0625C14.1501 21.675 13.3251 22.1 12.3376 22.225L9.87512 22.4875C8.53762 22.6375 7.38762 21.5 7.53762 20.1375L7.80012 17.675C8.03762 15.4875 9.86262 14.0875 11.8126 14.05C12.0126 14.0375 12.2126 14.05 12.4126 14.0625C13.2626 14.175 14.0876 14.5625 14.7751 15.25C15.4501 15.925 15.8251 16.7 15.9376 17.5375C15.9626 17.7375 15.9751 17.9375 15.9751 18.1125Z" stroke="#D4F2FB" stroke-width="2.5" stroke-linecap="round" stroke-linejoin="round"/>
<path d="M19.7751 14.975C19.7751 12.3625 17.6626 10.2375 15.0376 10.2375" stroke="#D4F2FB" stroke-width="2.5" stroke-linecap="round" stroke-linejoin="round"/>
</g>
<defs>
<clipPath id="clip0_21_408">
<rect width="30" height="30" fill="white"/>
</clipPath>
</defs>
</svg>
