<svg width="194" height="30" viewBox="0 0 194 30" fill="none" xmlns="http://www.w3.org/2000/svg">
<g clip-path="url(#clip0_21_95)">
<path d="M14.2124 2.5H11.7124C5.4624 2.5 2.9624 5 2.9624 11.25V18.75C2.9624 25 5.4624 27.5 11.7124 27.5H19.2124C25.4624 27.5 27.9624 25 27.9624 18.75V16.25" stroke="#D4F2FB" stroke-width="2.5" stroke-linecap="round" stroke-linejoin="round"/>
<path d="M27.85 4.45C26.3125 8.2875 22.45 13.5125 19.225 16.1L17.25 17.675C17 17.8625 16.75 18.0125 16.4625 18.125C16.4625 17.9375 16.45 17.75 16.425 17.55C16.3125 16.7125 15.9375 15.925 15.2625 15.2625C14.575 14.575 13.75 14.1875 12.9 14.075C12.7 14.0625 12.5 14.05 12.3 14.0625C12.4125 13.75 12.575 13.4625 12.7875 13.225L14.3625 11.25C16.95 8.025 22.1875 4.1375 26.0125 2.6C26.6 2.375 27.175 2.55 27.5375 2.9125C27.9125 3.2875 28.0875 3.8625 27.85 4.45Z" stroke="#D4F2FB" stroke-width="2.5" stroke-linecap="round" stroke-linejoin="round"/>
<path d="M16.4751 18.1125C16.4751 19.2125 16.0501 20.2625 15.2626 21.0625C14.6501 21.675 13.8251 22.1 12.8376 22.225L10.3751 22.4875C9.03762 22.6375 7.88762 21.5 8.03762 20.1375L8.30012 17.675C8.53762 15.4875 10.3626 14.0875 12.3126 14.05C12.5126 14.0375 12.7126 14.05 12.9126 14.0625C13.7626 14.175 14.5876 14.5625 15.2751 15.25C15.9501 15.925 16.3251 16.7 16.4376 17.5375C16.4626 17.7375 16.4751 17.9375 16.4751 18.1125Z" stroke="#D4F2FB" stroke-width="2.5" stroke-linecap="round" stroke-linejoin="round"/>
<path d="M20.2751 14.975C20.2751 12.3625 18.1626 10.2375 15.5376 10.2375" stroke="#D4F2FB" stroke-width="2.5" stroke-linecap="round" stroke-linejoin="round"/>
</g>
<path d="M188.446 26.9271L180.933 17.628L187.671 9.94617H192.489L184.1 19.2789V16.1455L193.5 26.9271H188.446ZM177.496 26.9271V2.66864H181.539V26.9271H177.496Z" fill="#D4F2FB"/>
<path d="M166.633 27.3314C165.128 27.3314 163.814 27.0955 162.691 26.6238C161.59 26.1297 160.714 25.4558 160.063 24.6023C159.434 23.7263 159.063 22.7268 158.951 21.6037H162.994C163.106 22.0754 163.308 22.5134 163.6 22.9177C163.892 23.2995 164.285 23.6028 164.779 23.8274C165.296 24.052 165.903 24.1643 166.599 24.1643C167.273 24.1643 167.823 24.0745 168.25 23.8948C168.677 23.6926 168.991 23.4343 169.193 23.1198C169.395 22.8054 169.496 22.4685 169.496 22.1091C169.496 21.57 169.35 21.1545 169.058 20.8625C168.766 20.5705 168.34 20.3459 167.778 20.1886C167.239 20.0089 166.588 19.8405 165.824 19.6832C165.015 19.526 164.229 19.3351 163.465 19.1105C162.724 18.8634 162.05 18.5602 161.444 18.2008C160.86 17.8414 160.388 17.3809 160.029 16.8194C159.692 16.2579 159.523 15.5728 159.523 14.7642C159.523 13.7759 159.782 12.8886 160.298 12.1025C160.837 11.3163 161.601 10.6986 162.589 10.2494C163.6 9.77772 164.802 9.54187 166.195 9.54187C168.171 9.54187 169.743 10.0023 170.911 10.9233C172.102 11.8217 172.798 13.0908 173 14.7305H169.159C169.047 14.1016 168.733 13.6186 168.216 13.2817C167.699 12.9223 167.014 12.7426 166.161 12.7426C165.285 12.7426 164.611 12.9111 164.139 13.248C163.69 13.5625 163.465 13.9892 163.465 14.5283C163.465 14.8877 163.6 15.2022 163.87 15.4717C164.162 15.7412 164.577 15.9771 165.116 16.1792C165.655 16.3589 166.318 16.5386 167.104 16.7183C168.362 16.9654 169.474 17.2574 170.44 17.5943C171.406 17.9312 172.169 18.4254 172.731 19.0768C173.292 19.7282 173.573 20.6491 173.573 21.8395C173.596 22.9177 173.315 23.8723 172.731 24.7034C172.169 25.5345 171.372 26.1858 170.339 26.6575C169.305 27.1068 168.07 27.3314 166.633 27.3314Z" fill="#D4F2FB"/>
<path d="M147.873 27.3314C146.188 27.3314 144.706 26.972 143.425 26.2532C142.145 25.512 141.146 24.4788 140.427 23.1535C139.708 21.8283 139.349 20.3009 139.349 18.5714C139.349 16.7745 139.697 15.2022 140.393 13.8545C141.112 12.5068 142.111 11.4511 143.392 10.6874C144.694 9.92372 146.199 9.54187 147.906 9.54187C149.569 9.54187 151.017 9.91248 152.253 10.6537C153.488 11.3949 154.443 12.3945 155.117 13.6523C155.79 14.8877 156.127 16.2803 156.127 17.8302C156.127 18.0548 156.127 18.3019 156.127 18.5714C156.127 18.8409 156.105 19.1217 156.06 19.4137H142.246V16.8194H152.051C152.006 15.584 151.59 14.6182 150.804 13.9219C150.018 13.2031 149.041 12.8437 147.873 12.8437C147.042 12.8437 146.278 13.0346 145.582 13.4165C144.885 13.7983 144.335 14.3711 143.931 15.1348C143.526 15.876 143.324 16.8194 143.324 17.9649V18.942C143.324 19.9977 143.515 20.9074 143.897 21.6711C144.301 22.4348 144.84 23.0188 145.514 23.4231C146.211 23.8049 146.986 23.9958 147.839 23.9958C148.782 23.9958 149.557 23.7937 150.164 23.3894C150.793 22.9851 151.253 22.446 151.545 21.7722H155.656C155.341 22.8279 154.825 23.7825 154.106 24.636C153.387 25.4671 152.5 26.1297 151.444 26.6238C150.388 27.0955 149.198 27.3314 147.873 27.3314Z" fill="#D4F2FB"/>
<path d="M116.432 26.9271V3.3425H124.047C126.787 3.3425 129.044 3.82542 130.819 4.79127C132.616 5.75711 133.941 7.12726 134.794 8.90172C135.67 10.6537 136.108 12.7426 136.108 15.1685C136.108 17.5494 135.67 19.6271 134.794 21.4015C133.941 23.1535 132.616 24.5125 130.819 25.4783C129.044 26.4442 126.787 26.9271 124.047 26.9271H116.432ZM120.475 23.4905H123.844C125.888 23.4905 127.494 23.1648 128.662 22.5134C129.853 21.8395 130.695 20.8849 131.189 19.6496C131.706 18.3917 131.964 16.898 131.964 15.1685C131.964 13.4165 131.706 11.9228 131.189 10.6874C130.695 9.42957 129.853 8.46372 128.662 7.78988C127.494 7.09357 125.888 6.74542 123.844 6.74542H120.475V23.4905Z" fill="#D4F2FB"/>
<path d="M92.6207 26.927L87.6343 9.94615H91.6437L95.114 23.8947L94.3727 23.8611L98.2473 9.94615H102.762L106.67 23.8611H105.929L109.399 9.94615H113.409L108.422 26.927H104.245L100.1 12.5405H100.943L96.7986 26.927H92.6207Z" fill="#D4F2FB"/>
<path d="M77.3618 27.3314C75.7446 27.3314 74.2846 26.9608 72.9818 26.2195C71.7015 25.4558 70.6907 24.4114 69.9495 23.0862C69.2307 21.7385 68.8713 20.1999 68.8713 18.4703C68.8713 16.6959 69.242 15.146 69.9832 13.8208C70.7244 12.4731 71.7352 11.4286 73.0155 10.6874C74.3183 9.92372 75.7782 9.54187 77.3955 9.54187C79.0127 9.54187 80.4615 9.92372 81.7418 10.6874C83.0445 11.4286 84.0553 12.4619 84.7741 13.7871C85.5153 15.1123 85.8859 16.6622 85.8859 18.4366C85.8859 20.2111 85.5153 21.7609 84.7741 23.0862C84.0329 24.4114 83.0109 25.4558 81.7081 26.2195C80.4278 26.9608 78.979 27.3314 77.3618 27.3314ZM77.3618 23.8611C78.1704 23.8611 78.9004 23.6589 79.5518 23.2546C80.2256 22.8503 80.7647 22.2439 81.169 21.4352C81.5733 20.6266 81.7755 19.6271 81.7755 18.4366C81.7755 17.2462 81.5733 16.2579 81.169 15.4717C80.7872 14.6631 80.2593 14.0566 79.5855 13.6523C78.9341 13.248 78.2041 13.0459 77.3955 13.0459C76.6093 13.0459 75.8793 13.248 75.2055 13.6523C74.5316 14.0566 73.9926 14.6631 73.5883 15.4717C73.1839 16.2579 72.9818 17.2462 72.9818 18.4366C72.9818 19.6271 73.1839 20.6266 73.5883 21.4352C73.9926 22.2439 74.5204 22.8503 75.1718 23.2546C75.8456 23.6589 76.5756 23.8611 77.3618 23.8611Z" fill="#D4F2FB"/>
<path d="M60.8894 26.9271V2.66864H64.9325V26.9271H60.8894Z" fill="#D4F2FB"/>
<path d="M42.5 26.9271V3.3425H57.5604V6.61065H46.5431V13.5176H55.5389V16.7183H46.5431V26.9271H42.5Z" fill="#D4F2FB"/>
<defs>
<clipPath id="clip0_21_95">
<rect width="30" height="30" fill="white" transform="translate(0.5)"/>
</clipPath>
</defs>
</svg>
