<svg width="43" height="42" viewBox="0 0 43 42" fill="none" xmlns="http://www.w3.org/2000/svg">
<path d="M15.6725 25.0775C15.6725 27.335 17.405 29.155 19.5575 29.155H23.95C25.8225 29.155 27.345 27.5625 27.345 25.6025C27.345 23.4675 26.4175 22.715 25.035 22.225L17.9825 19.775C16.6 19.285 15.6725 18.5325 15.6725 16.3975C15.6725 14.4375 17.195 12.845 19.0675 12.845H23.46C25.6125 12.845 27.345 14.665 27.345 16.9225" stroke="#BCCBCD" stroke-width="1.5" stroke-linecap="round" stroke-linejoin="round"/>
<path d="M21.5 10.5V31.5" stroke="#BCCBCD" stroke-width="1.5" stroke-linecap="round" stroke-linejoin="round"/>
<path d="M4 15.75C4 7 7.5 3.5 16.25 3.5H26.75C35.5 3.5 39 7 39 15.75V26.25C39 35 35.5 38.5 26.75 38.5H16.25C7.5 38.5 4 35 4 26.25V22.8025" stroke="#BCCBCD" stroke-width="1.5" stroke-linecap="round" stroke-linejoin="round"/>
</svg>
