<svg width="42" height="42" viewBox="0 0 42 42" fill="none" xmlns="http://www.w3.org/2000/svg">
<path d="M20.6325 20.79C19.6875 20.79 18.725 20.615 17.9725 20.2825L7.6475 15.6975C5.0225 14.525 4.6375 12.95 4.6375 12.0925C4.6375 11.235 5.0225 9.66 7.6475 8.4875L17.9725 3.9025C19.495 3.22 21.7875 3.22 23.31 3.9025L33.6525 8.4875C36.26 9.6425 36.6625 11.235 36.6625 12.0925C36.6625 12.95 36.2775 14.525 33.6525 15.6975L23.31 20.2825C22.54 20.6325 21.595 20.79 20.6325 20.79ZM20.6325 6.02C20.0375 6.02 19.46 6.1075 19.04 6.3L8.715 10.885C7.6475 11.375 7.2625 11.865 7.2625 12.0925C7.2625 12.32 7.6475 12.8275 8.6975 13.3L19.0225 17.885C19.8625 18.2525 21.385 18.2525 22.225 17.885L32.5675 13.3C33.635 12.8275 34.02 12.32 34.02 12.0925C34.02 11.865 33.635 11.3575 32.5675 10.885L22.2425 6.3C21.8225 6.125 21.2275 6.02 20.6325 6.02Z" fill="#BCCBCD"/>
<path d="M21 29.9075C20.335 29.9075 19.67 29.7675 19.04 29.4875L7.1575 24.2025C5.355 23.415 3.9375 21.2275 3.9375 19.25C3.9375 18.5325 4.5325 17.9375 5.25 17.9375C5.9675 17.9375 6.5625 18.5325 6.5625 19.25C6.5625 20.2125 7.35 21.42 8.225 21.8225L20.1075 27.1075C20.6675 27.3525 21.315 27.3525 21.8925 27.1075L33.775 21.8225C34.65 21.4375 35.4375 20.2125 35.4375 19.25C35.4375 18.5325 36.0325 17.9375 36.75 17.9375C37.4675 17.9375 38.0625 18.5325 38.0625 19.25C38.0625 21.2275 36.645 23.415 34.8425 24.22L22.96 29.505C22.33 29.7675 21.665 29.9075 21 29.9075Z" fill="#BCCBCD"/>
<path d="M21 38.6575C20.335 38.6575 19.67 38.5175 19.04 38.2375L7.1575 32.9525C5.1975 32.0775 3.9375 30.135 3.9375 27.9825C3.9375 27.265 4.5325 26.67 5.25 26.67C5.9675 26.67 6.5625 27.2825 6.5625 28C6.5625 29.1025 7.21 30.1175 8.225 30.5725L20.1075 35.8575C20.6675 36.1025 21.315 36.1025 21.8925 35.8575L33.775 30.5725C34.79 30.1175 35.4375 29.12 35.4375 28C35.4375 27.2825 36.0325 26.6875 36.75 26.6875C37.4675 26.6875 38.0625 27.2825 38.0625 28C38.0625 30.1525 36.8025 32.095 34.8425 32.97L22.96 38.255C22.33 38.5175 21.665 38.6575 21 38.6575Z" fill="#BCCBCD"/>
</svg>
