<svg width="30" height="31" viewBox="0 0 30 31" fill="none" xmlns="http://www.w3.org/2000/svg">
<path d="M14.7441 3.67188C15.3458 3.67192 15.9172 3.781 16.3428 3.97168L16.3457 3.97363L23.7334 7.24805C24.559 7.61373 24.9724 8.02014 25.1836 8.3418C25.3945 8.66311 25.4375 8.95125 25.4375 9.1377C25.4375 9.32758 25.3966 9.61214 25.1885 9.92969C24.9794 10.2486 24.5663 10.654 23.7334 11.0264L16.3457 14.3018L16.3398 14.3047C15.9147 14.4979 15.3526 14.5996 14.7373 14.5996C14.1434 14.5996 13.5632 14.4885 13.1406 14.3018H13.1416L5.76758 11.0273H5.76855C4.93435 10.6547 4.52072 10.2488 4.31152 9.92969C4.1034 9.61214 4.06253 9.32758 4.0625 9.1377C4.0625 8.94785 4.10345 8.66328 4.31152 8.3457C4.52056 8.02677 4.93351 7.62047 5.7666 7.24805L13.1416 3.97266L13.1445 3.97168C13.5702 3.78092 14.1423 3.67188 14.7441 3.67188ZM14.7373 4.0498C14.318 4.04982 13.8574 4.10195 13.4561 4.24902L13.2959 4.31445L5.9209 7.58984L5.91211 7.59375C5.48046 7.7919 5.14827 8.00651 4.91113 8.22559C4.79291 8.33481 4.68571 8.45654 4.60352 8.58984C4.53811 8.69598 4.45992 8.85601 4.44141 9.05176L4.4375 9.1377L4.44141 9.22266C4.45961 9.41653 4.53697 9.57529 4.60059 9.68066C4.68123 9.81424 4.78622 9.93755 4.9043 10.0488C5.14132 10.2722 5.47312 10.4895 5.9043 10.6836L5.9082 10.6855L13.2832 13.9609L13.2871 13.9619C13.7158 14.1494 14.251 14.2217 14.7314 14.2217C15.2119 14.2217 15.7471 14.1494 16.1758 13.9619L16.1787 13.9609L23.5664 10.6855C24.0037 10.4919 24.3395 10.2753 24.5791 10.0518C24.6985 9.9403 24.8053 9.81679 24.8867 9.68262C24.9602 9.56146 25.0498 9.37044 25.0498 9.1377C25.0498 8.90504 24.9602 8.71398 24.8867 8.59277C24.8053 8.45865 24.6985 8.33506 24.5791 8.22363C24.3395 7.99997 24.003 7.78254 23.5654 7.58887L16.1914 4.31445L16.1836 4.31055L16.1758 4.30762C15.7627 4.13555 15.2347 4.0498 14.7373 4.0498Z" fill="#A8E4F6" stroke="#A8E4F6" stroke-width="1.5"/>
<path d="M26.25 14.0625C26.2952 14.0625 26.3424 14.0807 26.3809 14.1191C26.4193 14.1576 26.4375 14.2048 26.4375 14.25C26.4375 14.785 26.2418 15.3897 25.8906 15.9316C25.5834 16.4057 25.1847 16.7901 24.7637 17.0244L24.583 17.1143L16.1045 20.8848C15.7419 21.0349 15.3673 21.1123 15 21.1123C14.6312 21.1123 14.2602 21.0346 13.9053 20.877L5.41699 17.1025L5.41309 17.1006L5.23242 17.0117C4.8136 16.7824 4.41543 16.4014 4.1084 15.9287C3.75787 15.3889 3.5625 14.785 3.5625 14.25C3.5625 14.2048 3.58067 14.1576 3.61914 14.1191C3.65761 14.0807 3.70478 14.0625 3.75 14.0625C3.79522 14.0625 3.84239 14.0807 3.88086 14.1191C3.91933 14.1576 3.9375 14.2048 3.9375 14.25C3.9375 14.7803 4.14676 15.3081 4.41797 15.7266C4.68947 16.1454 5.08446 16.5491 5.56152 16.7686L5.57031 16.7725L14.0576 20.5479L14.0615 20.5498C14.656 20.8099 15.3339 20.8059 15.9307 20.5527L15.9424 20.5479L24.4258 16.7734L24.4268 16.7744C24.9137 16.5602 25.3123 16.1499 25.583 15.7305C25.8541 15.3102 26.0625 14.7792 26.0625 14.25C26.0625 14.2048 26.0807 14.1576 26.1191 14.1191C26.1576 14.0807 26.2048 14.0625 26.25 14.0625Z" fill="#A8E4F6" stroke="#A8E4F6" stroke-width="1.5"/>
<path d="M3.75 20.3C3.78835 20.3 3.8346 20.3164 3.87598 20.3586C3.91775 20.4012 3.9375 20.4535 3.9375 20.5002C3.93758 21.58 4.57092 22.5745 5.56836 23.0217L5.57031 23.0226L14.0576 26.798L14.0615 26.8C14.656 27.0601 15.3339 27.0561 15.9307 26.8029L15.9424 26.798L24.4297 23.0226L24.4316 23.0217C25.4267 22.5756 26.0624 21.5952 26.0625 20.5002C26.0625 20.455 26.0807 20.4078 26.1191 20.3693C26.1576 20.3309 26.2048 20.3127 26.25 20.3127C26.2952 20.3127 26.3424 20.3309 26.3809 20.3693C26.4193 20.4078 26.4375 20.455 26.4375 20.5002C26.4374 21.6645 25.7993 22.721 24.7891 23.2639L24.583 23.3644L16.1045 27.1349C15.7419 27.2851 15.3673 27.3625 15 27.3625C14.631 27.3625 14.2594 27.285 13.9043 27.1271H13.9053L5.41699 23.3517H5.41602C4.28795 22.8471 3.5625 21.7287 3.5625 20.4875C3.5625 20.4423 3.58067 20.3951 3.61914 20.3566C3.65761 20.3182 3.70478 20.3 3.75 20.3Z" fill="#A8E4F6" stroke="#A8E4F6" stroke-width="1.5"/>
</svg>
