<svg width="20" height="20" viewBox="0 0 20 20" fill="none" xmlns="http://www.w3.org/2000/svg">
<path d="M7.49992 1.04166L12.4999 1.04166C17.0249 1.04166 18.9583 2.97499 18.9583 7.49999L18.9583 12.5C18.9583 17.025 17.0249 18.9583 12.4999 18.9583L7.49992 18.9583C2.97492 18.9583 1.04158 17.025 1.04158 12.5L1.04159 7.49999C1.04159 2.97499 2.97492 1.04166 7.49992 1.04166ZM12.4999 17.7083C16.3416 17.7083 17.7083 16.3417 17.7083 12.5L17.7083 7.49999C17.7083 3.65833 16.3416 2.29166 12.4999 2.29166L7.49992 2.29166C3.65825 2.29166 2.29159 3.65833 2.29159 7.49999L2.29158 12.5C2.29158 16.3417 3.65825 17.7083 7.49992 17.7083L12.4999 17.7083Z" fill="#06191F"/>
<path d="M11.0499 6.43332C11.2083 6.43332 11.3666 6.49166 11.4916 6.61666C11.7333 6.85833 11.7333 7.25832 11.4916 7.49999L8.9916 9.99999L11.4916 12.5C11.7333 12.7417 11.7333 13.1417 11.4916 13.3833C11.2499 13.625 10.8499 13.625 10.6083 13.3833L7.6666 10.4417C7.42494 10.2 7.42494 9.79999 7.6666 9.55832L10.6083 6.61666C10.7333 6.49166 10.8916 6.43332 11.0499 6.43332Z" fill="#06191F"/>
</svg>
