<svg width="20" height="20" viewBox="0 0 20 20" fill="none" xmlns="http://www.w3.org/2000/svg">
<path d="M12.5001 18.9583H7.50008C2.97508 18.9583 1.04175 17.025 1.04175 12.5L1.04175 7.49996C1.04175 2.97496 2.97508 1.04163 7.50008 1.04163L12.5001 1.04163C17.0251 1.04163 18.9584 2.97496 18.9584 7.49996V12.5C18.9584 17.025 17.0251 18.9583 12.5001 18.9583ZM7.50008 2.29163C3.65841 2.29163 2.29175 3.65829 2.29175 7.49996L2.29175 12.5C2.29175 16.3416 3.65841 17.7083 7.50008 17.7083H12.5001C16.3417 17.7083 17.7084 16.3416 17.7084 12.5V7.49996C17.7084 3.65829 16.3417 2.29163 12.5001 2.29163L7.50008 2.29163Z" fill="#06191F"/>
<path d="M8.95006 13.5667C8.79173 13.5667 8.6334 13.5083 8.5084 13.3833C8.26673 13.1417 8.26673 12.7417 8.5084 12.5L11.0084 10L8.5084 7.50001C8.26673 7.25834 8.26673 6.85834 8.5084 6.61667C8.75007 6.37501 9.15007 6.37501 9.39173 6.61667L12.3334 9.55834C12.5751 9.80001 12.5751 10.2 12.3334 10.4417L9.39173 13.3833C9.26673 13.5083 9.1084 13.5667 8.95006 13.5667Z" fill="#06191F"/>
</svg>
