<svg width="30" height="31" viewBox="0 0 30 31" fill="none" xmlns="http://www.w3.org/2000/svg">
<path d="M2.5 16.625C2.5 12.25 4.25 10.5 8.625 10.5H13.875C18.25 10.5 20 12.25 20 16.625V21.875C20 26.25 18.25 28 13.875 28H8.625C4.25 28 2.5 26.25 2.5 21.875" stroke="#A8E4F6" stroke-width="1.5" stroke-linecap="round" stroke-linejoin="round"/>
<path d="M27.5 14.375C27.5 18.75 25.75 20.5 21.375 20.5H20V16.625C20 12.25 18.25 10.5 13.875 10.5H10V9.125C10 4.75 11.75 3 16.125 3H21.375C25.75 3 27.5 4.75 27.5 9.125" stroke="#A8E4F6" stroke-width="1.5" stroke-linecap="round" stroke-linejoin="round"/>
</svg>
